<?xml version="1.0" encoding="utf-8"?>
<!-- Generator: Adobe Illustrator 16.0.4, SVG Export Plug-In . SVG Version: 6.00 Build 0)  -->
<!DOCTYPE svg PUBLIC "-//W3C//DTD SVG 1.1//EN" "http://www.w3.org/Graphics/SVG/1.1/DTD/svg11.dtd">
<svg version="1.1" id="Ebene_1" xmlns="http://www.w3.org/2000/svg" xmlns:xlink="http://www.w3.org/1999/xlink" x="0px" y="0px"
	 width="300.473px" height="90.709px" viewBox="0 0 300.473 90.709" enable-background="new 0 0 300.473 90.709"
	 xml:space="preserve">
<g>
	<path d="M291.917,39.823c-0.518-17.86-14.767-31.12-32.892-31.645c-1.215-0.035-8.193-0.113-10.741-0.113
		s-9.525,0.078-10.741,0.113c-18.125,0.524-32.374,13.784-32.892,31.645c-0.067,2.387-0.067,8.05,0,10.437
		c0.518,17.86,14.767,31.12,32.892,31.645c2.431,0.07,6.956,0.148,10.741,0.148s8.311-0.078,10.741-0.148
		c18.125-0.524,32.374-13.784,32.892-31.645C291.985,47.873,291.985,42.21,291.917,39.823z M275.603,52.207
		c-0.597,8.982-7.434,14.497-16.597,14.994c-1.53,0.083-3.931,0.415-10.722,0.417c-6.79-0.002-9.19-0.334-10.722-0.417
		c-9.163-0.497-16-6.012-16.597-14.994c-0.061-0.906-0.189-4.019-0.189-7.138c0-3.137,0.129-6.28,0.189-7.192
		c0.597-8.982,7.434-14.502,16.597-14.999c1.531-0.083,3.932-0.415,10.722-0.417c6.791,0.002,9.191,0.334,10.722,0.417
		c9.163,0.497,16,6.017,16.597,14.999c0.062,0.908,0.2,4.037,0.2,7.165S275.664,51.297,275.603,52.207z"/>
	<g>
		<path d="M178.007,52.207c-0.597,8.983-7.434,14.458-16.597,14.955c-1.531,0.083-3.932,0.416-10.722,0.418
			c-6.791-0.002-9.191-0.335-10.722-0.418c-9.163-0.497-16-5.972-16.597-14.955c-0.062-0.906-0.19-4.019-0.19-7.138
			c0-3.137,0.129-6.28,0.19-7.192c0.597-8.981,7.434-14.502,16.597-14.999c1.53-0.083,3.931-0.415,10.722-0.417
			c6.79,0.002,9.19,0.334,10.722,0.417c9.163,0.497,16,6.018,16.597,14.999c0.002,0.027,0.005,0.073,0.006,0.104h15.671
			c-1.408-16.922-14.759-29.295-32.254-29.801c-1.216-0.035-8.193-0.113-10.741-0.113s-9.526,0.078-10.741,0.113
			c-18.125,0.524-32.374,13.784-32.892,31.645c-0.068,2.387-0.068,8.05,0,10.437c0.518,17.859,14.767,31.119,32.892,31.644
			c2.431,0.069,6.956,0.147,10.741,0.147s8.311-0.078,10.741-0.147c17.483-0.507,30.824-12.863,32.251-29.766h-15.67
			C178.009,52.158,178.008,52.189,178.007,52.207z"/>
		<path d="M150.532,52.139h27.479c0.063-0.974,0.195-4.029,0.195-7.097c0-3.037-0.13-6.056-0.193-7.062h-27.48V52.139z"/>
	</g>
	<path d="M95.82,39.823C95.325,21.962,81.054,8.703,62.929,8.179c-1.216-0.035-8.193-0.113-10.741-0.113s-9.526,0.078-10.741,0.113
		C23.32,8.703,9.072,21.963,8.555,39.823c-0.068,2.387-0.068,8.05,0,10.437C9.072,68.12,23.32,81.38,41.446,81.904
		c2.431,0.07,6.956,0.148,10.741,0.148V67.977c-6.791,0-9.191-0.334-10.722-0.418c-9.163-0.497-16-6.37-16.597-15.353
		c-0.062-0.906-0.19-4.019-0.19-7.138c0-3.137,0.129-6.28,0.19-7.192c0.597-8.982,7.434-14.502,16.597-14.999
		c1.53-0.083,3.931-0.415,10.722-0.417c6.79,0.002,9.19,0.334,10.722,0.417c9.163,0.497,16,6.143,16.597,15.125H52.181v14.149
		l43.657,0.015C95.838,52.166,96.045,47.969,95.82,39.823z"/>
	<path d="M80.625,65.957c0,0-2.473-0.075-3.869-0.075c-1.398,0-3.959,0.075-3.959,0.075c-3.337,0-5.933,2.561-6.067,5.888
		c-0.098,2.396-0.098,2.743,0,4.817c0.152,3.248,2.73,5.891,6.067,5.891c0,0,2.248,0.09,3.766,0.09c1.516,0,4.062-0.09,4.062-0.09
		c3.337,0,5.84-2.431,6.067-5.891c0.131-1.992,0.136-2.37,0-4.817C86.506,68.504,83.962,65.957,80.625,65.957z"/>
</g>
</svg>
